<svg width="114" height="19" viewBox="0 0 114 19" fill="none" xmlns="http://www.w3.org/2000/svg">
<path d="M9.24494 0.255066L11.8641 5.89498L18.0374 6.64316L13.4829 10.877L14.679 16.9793L9.24494 13.9561L3.8109 16.9793L5.00697 10.877L0.452479 6.64316L6.62573 5.89498L9.24494 0.255066Z" fill="#FFC633"/>
<path d="M104.735 0.255066L107.354 5.89498L113.527 6.64316L108.973 10.877L110.169 16.9793L104.735 13.9561L99.3006 16.9793L100.497 10.877L95.9422 6.64316L102.115 5.89498L104.735 0.255066Z" fill="#FFC633"/>
<path d="M33.0467 0.255005L35.6659 5.89491L41.8392 6.6431L37.2847 10.8769L38.4807 16.9793L33.0467 13.956L27.6127 16.9793L28.8087 10.8769L24.2542 6.6431L30.4275 5.89491L33.0467 0.255005Z" fill="#FFC633"/>
<path d="M56.8489 0.255005L59.4681 5.89491L65.6414 6.6431L61.0869 10.8769L62.283 16.9793L56.8489 13.956L51.4149 16.9793L52.611 10.8769L48.0565 6.6431L54.2297 5.89491L56.8489 0.255005Z" fill="#FFC633"/>
<path d="M80.6507 0.255005L83.2699 5.89491L89.4432 6.6431L84.8887 10.8769L86.0847 16.9793L80.6507 13.956L75.2167 16.9793L76.4127 10.8769L71.8582 6.6431L78.0315 5.89491L80.6507 0.255005Z" fill="#FFC633"/>
</svg>
